<svg width="747" height="709" viewBox="0 0 747 709" fill="none" xmlns="http://www.w3.org/2000/svg">
<path fill-rule="evenodd" clip-rule="evenodd" d="M10.0043 531.503C156.999 456.806 224.84 416.432 330.504 346.003C334.311 334.459 337.584 325.753 340.951 316.797C352.273 286.683 364.661 253.732 402.004 100.503C407.161 77.9246 410.096 64.1343 415.504 35.0031C417.15 23.677 417.984 17.8225 419.004 10.0031C421.04 2.64891 423.141 0.485502 429.004 0.00314782C434.328 -0.104384 436.547 2.53609 440.004 9.00317C442.777 17.372 443.671 24.0224 444.004 36.5032C442.222 74.5621 438.851 96.0737 432.004 134.503C418.497 203.791 409.492 241.202 389.504 304.003C504.027 219.197 573.66 160.324 715.004 19.5032C725.158 11.5409 729.422 9.5694 734.004 12.0032C739.337 16.381 738.651 21.1371 731.5 32.0032C728.755 35.9796 694.488 81.9036 672.5 106.503C560.573 222.864 491.919 277.68 367.504 367.503C358.288 391.51 352.123 406.032 339.504 433.003C325.621 462.577 318.342 477.01 306.004 500.003C359.168 501.304 388.722 502.605 441.004 506.003C511.974 511.167 551.471 515.555 621.504 525.503C660.767 530.046 678.046 533.124 711.005 541.003C717.278 542.912 724.672 545.273 734.504 550.503C735.131 550.875 735.734 551.231 736.313 551.572C742.439 555.187 745.911 557.235 746.504 560.003C747.097 562.043 744.347 563.84 742.505 564.503C737.442 566.075 735.31 566.482 731.954 567.123C730.709 567.36 729.297 567.63 727.504 568.003C716.542 569.573 709.82 569.946 696.004 569.003C594.056 559.831 538.116 554.987 441.004 547.003C377.797 542.749 343.543 541.053 285.004 539.503C266.998 569.388 256.932 585.735 239.004 614.503C213.197 655.609 200.005 670.606 177.004 694.003C170.445 698.949 166.553 701.426 159.004 705.003C151.601 707.946 147.244 709.585 145.004 706.503C143.956 704.72 143.909 702.953 146.504 696.003C148.942 688.713 150.643 684.524 155.504 676.503C167.325 658.529 173.906 648.346 185.504 630.003C206.111 596.283 217.835 576.402 239.004 539.503C194.204 540.938 169.223 542.461 125.004 547.003C78.6822 553.239 62.6198 556.672 27.5046 566.503C23.3553 567.337 21.0466 567.641 17.0046 567.503C11.1464 566.693 8.33558 565.066 4.00455 560.503C1.3241 556.812 0.458508 554.509 0.00455475 550.003C-0.0540192 545.36 0.43462 542.833 2.50456 538.503C4.62075 535.031 6.36945 533.594 10.0043 531.503ZM260.005 499.503C213.807 501.273 188.876 502.761 146.505 506.503C213.094 470.426 247.354 449.697 304.005 412.003C281.475 458.518 272.067 477.159 260.005 499.503Z" fill="#D6DFF7"/>
</svg>
