<?xml version="1.0" encoding="UTF-8"?>
<svg id="Layer_1" data-name="Layer 1" xmlns="http://www.w3.org/2000/svg" viewBox="0 0 17.43 1656.47">
  <defs>
    <style>
      .cls-1 {
        fill: #7890c5;
        stroke: #7890c5;
      }

      .cls-1, .cls-2, .cls-3 {
        stroke-linecap: round;
        stroke-linejoin: round;
      }

      .cls-2 {
        fill: none;
        stroke: #fff;
      }

      .cls-3 {
        fill: #4076df;
        stroke: #4076df;
      }
    </style>
  </defs>
  <polygon class="cls-1" points="2.77 1223.93 14.99 1187.84 5.76 1154.72 14.99 1126.14 2.77 1078.7 14.99 1039.38 2.77 979.73 14.99 949.45 5.76 913.02 14.99 872.08 2.77 828.24 11.92 779.95 2.91 750.37 14.99 698.86 2.86 650.04 15.1 611.4 6.05 576.95 15.1 527.57 5.93 485.91 15.05 470.58 6.05 448.44 15.05 409.57 5.99 368.02 15.05 327.31 2.86 287.38 14.99 255.5 6.74 230.77 15.08 193.39 6 169.88 15.08 142.58 5.93 112.44 15.08 82.96 5.72 57.93 14.99 34.91 14.99 .5 14.49 34.82 3.83 58 15.08 82.96 3.42 112.54 15.08 142.58 3.68 169.97 15.08 193.39 3.37 230.83 14.99 255.5 .5 287.48 15.05 327.31 3.96 368.06 15.05 409.57 4.24 448.63 15.05 470.58 4.24 485.65 15.1 527.57 3.87 576.97 15.1 611.4 .79 650.25 14.99 698.86 .97 750.17 11.92 779.95 .5 828.24 14.99 872.08 3.3 913.01 14.99 949.45 .75 979.74 14.99 1039.38 .57 1078.68 14.99 1126.06 3.6 1154.43 14.99 1187.84 .53 1223.66 14.99 1274.1 .78 1302.4 14.32 1344.11 4.29 1381.51 15.01 1408.64 .89 1453.49 14.99 1473.45 4.62 1507.83 15.01 1532.87 .69 1564.71 15.01 1604.39 .95 1635.16 16.93 1655.97 2.77 1635.1 14.99 1604.46 2.77 1564.9 14.99 1532.95 6.48 1508.03 14.99 1473.45 2.77 1453.51 14.99 1408.73 6.67 1381.33 14.32 1344.11 2.77 1302.44 14.99 1274.1 2.77 1223.93"/>
  <polyline class="cls-3" points="5.69 57.99 14.99 82.83 5.84 112.32 14.99 142.46 5.91 169.76 14.99 193.27 6.65 230.65 14.9 255.38 2.77 287.26 14.96 327.19 5.9 367.9 14.96 409.45 5.95 448.32 14.96 470.46 5.84 485.79 15.01 527.45 5.95 576.83 15.01 611.28 2.77 649.92 14.9 698.74 2.82 750.25 11.92 779.95 2.77 828.24 14.99 872.08 5.76 913.02 14.99 949.45 2.77 979.73 14.99 1039.38 2.77 1078.7 14.99 1126.52 5.76 1154.72 14.99 1187.84 2.77 1223.93 14.99 1274.1 2.77 1302.44 14.32 1344.11 6.67 1381.33 15.01 1408.64 2.77 1453.51 14.99 1473.45 6.48 1508.03 15.01 1532.87 2.77 1564.9 14.99 1604.46 2.77 1635.1 16.93 1655.97 4.52 1634.99 14.99 1604.46 4.44 1564.9 14.99 1532.95 8.27 1508.01 14.99 1473.45 4.57 1453.39 14.99 1408.73 8.31 1381.32 14.32 1344.11 4.57 1302.55 14.99 1274.1 4.79 1224.06 14.99 1187.84 8.02 1154.82 14.99 1126.52 5.12 1078.67 14.99 1039.38 4.94 979.82 14.99 949.45 8.02 913.04 14.99 872.08 5.4 828.24 11.92 779.95 5.7 750.1 14.9 698.74 5.05 649.63 15.01 611.28 8.21 576.49 15.01 527.45 8.1 485.82 14.96 470.46 8.32 447.72 14.96 409.45 8.19 367.36 14.96 327.19 5.28 287.14 14.9 255.38 8.45 230.6 14.99 193.27 7.97 169.78 14.99 142.46 7.93 112.35 14.99 82.83 7.79 58 15.49 34.97 14.99 .5 14.99 34.91 5.69 57.99"/>
  <polyline class="cls-2" points="14.99 .5 14.99 34.91 5.69 57.99 14.99 82.83 5.84 112.32 14.99 142.46 5.91 169.76 14.99 193.27 6.65 230.65 14.9 255.38 2.77 287.26 14.96 327.19 5.9 367.9 14.96 409.45 5.95 448.32 14.96 470.46 5.84 485.78 15.01 527.45 5.95 576.83 15.01 611.28 2.77 649.92 14.9 698.74 2.82 750.24 11.92 779.95 2.77 828.24 14.99 872.08 5.76 913.02 14.99 949.45 2.77 979.73 14.99 1039.38 2.77 1078.7 14.99 1126.52 5.76 1154.72 14.99 1187.84 2.77 1223.93 14.99 1274.1 2.77 1302.44 14.32 1344.11 6.67 1381.33 15.01 1408.64 2.77 1453.51 14.99 1473.45 6.48 1508.03 15.01 1532.87 2.77 1564.9 15.01 1604.39 2.77 1635.1 16.93 1655.97"/>
</svg>