<?xml version="1.0" encoding="UTF-8"?>
<svg id="Layer_1" data-name="Layer 1" xmlns="http://www.w3.org/2000/svg" viewBox="0 0 29.23 1301.76">
  <defs>
    <style>
      .cls-1 {
        fill: #7890c5;
        stroke: #7890c5;
      }

      .cls-1, .cls-2, .cls-3 {
        stroke-linecap: round;
        stroke-linejoin: round;
      }

      .cls-2 {
        fill: none;
        stroke: #fff;
      }

      .cls-3 {
        fill: #4076df;
        stroke: #4076df;
      }
    </style>
  </defs>
  <polygon class="cls-1" points="28.73 1301.26 18.74 1268.32 28.47 1242.09 19.13 1192.71 28.25 1150.49 16.17 1098.71 28.3 1063.7 19.13 1022.15 28.19 974.78 16.06 929.93 23.83 892.46 19.24 833.13 28.3 782.96 16.11 732.75 28.19 681.24 16.06 632.42 28.3 593.78 19.24 559.33 28.3 509.95 19.13 468.28 28.25 452.96 19.24 430.82 28.25 391.95 19.19 350.4 28.25 309.69 16.06 269.76 28.19 237.88 16 201.36 28.25 172.51 19.08 136.1 28.14 96.06 12.09 71.62 28.14 40.14 2.72 15.59 2.72 .5 .5 16.52 28.15 40.11 9.78 71.42 28.14 96.06 16.6 136.01 28.25 172.51 14.08 201.44 28.19 237.88 13.7 269.86 28.25 309.69 17.16 350.43 28.25 391.95 17.44 431.01 28.25 452.96 17.44 468.02 28.3 509.95 17.07 559.34 28.3 593.78 13.98 632.63 28.19 681.24 14.17 732.55 28.3 782.96 17.26 833.22 23.83 892.46 14.08 929.96 28.19 974.78 17.44 1022.12 28.3 1063.7 14.62 1098.4 28.25 1150.49 17.07 1193.08 28.47 1242.09 16.88 1268.14 28.73 1301.26"/>
  <polygon class="cls-3" points="28.73 1301.26 18.74 1268.32 28.47 1242.09 19.13 1192.71 28.25 1150.49 16.17 1098.71 28.3 1063.7 19.13 1022.15 28.19 974.78 16.06 929.93 23.83 892.46 19.24 833.13 28.3 782.96 16.11 732.75 28.19 681.24 16.06 632.42 28.3 593.78 19.24 559.33 28.3 509.95 19.13 468.29 28.25 452.96 19.24 430.82 28.25 391.95 19.19 350.4 28.25 309.69 16.06 269.76 28.19 237.88 16 201.36 28.25 172.51 19.08 136.1 28.14 96.06 12.09 71.62 28.14 40.14 2.72 15.59 2.72 .5 4.37 14.67 28.14 40.14 14.62 71.32 28.14 96.06 21.56 135.41 28.25 172.51 18.4 201.2 28.19 237.88 18.57 269.64 28.25 309.69 21.48 349.86 28.25 391.95 21.61 430.22 28.25 452.96 21.39 468.32 28.3 509.95 21.5 558.99 28.3 593.78 18.34 632.13 28.19 681.24 18.99 732.6 28.3 782.96 21.93 833.17 23.83 892.46 19.1 929.5 28.19 974.78 21.82 1022.34 28.3 1063.7 18.89 1099.3 28.25 1150.49 22.04 1192.47 28.47 1242.09 21.28 1268.01 28.73 1301.26"/>
  <polyline class="cls-2" points="28.73 1301.26 18.74 1268.32 28.47 1242.09 19.13 1192.71 28.25 1150.49 16.17 1098.71 28.3 1063.7 19.13 1022.15 28.19 974.78 16.06 929.93 23.83 892.46 19.24 833.13 28.3 782.96 16.11 732.75 28.19 681.24 16.06 632.42 28.3 593.78 19.24 559.33 28.3 509.95 19.13 468.28 28.25 452.96 19.24 430.82 28.25 391.95 19.19 350.4 28.25 309.69 16.06 269.76 28.19 237.88 16 201.36 28.25 172.51 19.08 136.1 28.14 96.06 12.09 71.62 28.14 40.14 2.72 15.59 2.72 .5"/>
</svg>