<svg width="119" height="5424" viewBox="0 0 119 5424" fill="none" xmlns="http://www.w3.org/2000/svg">
<g filter="url(#filter0_g_22_150)">
<path d="M5 5V64.5L112.2 166.5L44 299L112.2 400.5L73.8 566.5L112.2 719.5L61 839.5L112.2 991L61 1124L112.2 1292L73.8 1460.5L112.2 1635.5L73.8 1796.5L112.2 1887.5L73.8 1951L112.2 2123.5L73.8 2331.5L112.2 2474L61 2635.5L112.2 2840.5L61 3056L112.2 3262.5L73.8 3475L94 3720.5L61 3875.5L112.2 4063.5L73.8 4259L112.2 4433L61 4580L112.2 4792.5L73.8 4969L113 5177.5L72 5284.5L113 5418.5" stroke="#4D75D8" stroke-width="2" stroke-linecap="round"/>
</g>
<defs>
<filter id="filter0_g_22_150" x="0" y="0" width="118.035" height="5423.5" filterUnits="userSpaceOnUse" color-interpolation-filters="sRGB">
<feFlood flood-opacity="0" result="BackgroundImageFix"/>
<feBlend mode="normal" in="SourceGraphic" in2="BackgroundImageFix" result="shape"/>
<feTurbulence type="fractalNoise" baseFrequency="0.66666668653488159 0.66666668653488159" numOctaves="3" seed="5372" />
<feDisplacementMap in="shape" scale="8" xChannelSelector="R" yChannelSelector="G" result="displacedImage" width="100%" height="100%" />
<feMerge result="effect1_texture_22_150">
<feMergeNode in="displacedImage"/>
</feMerge>
</filter>
</defs>
</svg>
