<?xml version="1.0" encoding="UTF-8"?>
<svg id="Layer_1" data-name="Layer 1" xmlns="http://www.w3.org/2000/svg" viewBox="0 0 23.83 1367.75">
  <defs>
    <style>
      .cls-1 {
        fill: #9e5832;
        stroke: #9e5832;
      }

      .cls-1, .cls-2, .cls-3 {
        stroke-linecap: round;
        stroke-linejoin: round;
      }

      .cls-2 {
        fill: none;
        stroke: #fff;
      }

      .cls-3 {
        fill: #bc8669;
        stroke: #bc8669;
      }
    </style>
  </defs>
  <polyline class="cls-3" points="12.04 1367.25 18.54 1305.89 3.8 1133.82 18.54 965.12 7.42 810.45 20.47 650.94 8.15 485.87 18.05 343.04 8.15 156.22 13.56 .5 4.32 156.42 18.05 343.04 5.06 485.67 20.47 650.94 4.18 810.48 18.54 965.12 .5 1133.81 18.54 1305.89 12.04 1367.25"/>
  <polygon class="cls-1" points="22.1 1306.03 3.8 1133.82 21.02 965.23 7.42 810.45 23.33 651.24 8.15 485.87 21.19 343.35 8.15 156.22 13.56 .5 8.15 156.22 18.05 343.04 8.15 485.87 20.47 650.94 7.42 810.45 18.54 965.12 3.8 1133.82 18.54 1305.89 12.04 1367.25 22.1 1306.03"/>
  <polyline class="cls-2" points="12.04 1367.25 18.54 1305.89 3.8 1133.82 18.54 965.12 7.42 810.45 20.47 650.94 8.15 485.87 18.05 343.04 8.15 156.22 13.56 .5"/>
</svg>