<?xml version="1.0" encoding="UTF-8"?>
<svg id="Layer_1" data-name="Layer 1" xmlns="http://www.w3.org/2000/svg" viewBox="0 0 16.75 703.68">
  <defs>
    <style>
      .cls-1 {
        fill: #7890c5;
        stroke: #7890c5;
      }

      .cls-1, .cls-2, .cls-3 {
        stroke-linecap: round;
        stroke-linejoin: round;
      }

      .cls-2 {
        fill: none;
        stroke: #fff;
      }

      .cls-3 {
        fill: #4076df;
        stroke: #4076df;
      }
    </style>
  </defs>
  <polyline class="cls-1" points="16.25 703.18 2.76 649.95 15.1 611.43 6.04 576.98 15.1 527.6 5.93 485.94 15.04 470.61 6.04 448.47 15.04 409.6 5.98 368.05 15.04 327.34 2.85 287.41 14.99 255.53 6.73 230.8 15.07 193.42 5.99 169.91 15.07 142.61 9.36 103.34 15.29 70.18 6.59 44.56 9.55 21.24 6.11 .5 9.05 21.25 4.86 44.48 15.29 70.18 7.66 103.22 15.07 142.61 3.68 170 15.07 193.42 3.36 230.86 14.99 255.53 .5 287.51 15.04 327.34 3.96 368.09 15.04 409.6 4.24 448.66 15.04 470.61 4.24 485.68 15.1 527.6 3.86 577 15.1 611.43 .78 650.28 16.24 703.18"/>
  <polyline class="cls-3" points="6.59 44.56 15.29 70.18 9.36 103.34 14.98 142.49 5.9 169.79 14.98 193.3 6.64 230.68 14.9 255.41 2.76 287.29 14.95 327.22 5.89 367.93 14.95 409.48 5.95 448.35 14.95 470.49 5.84 485.82 15.01 527.48 5.95 576.86 15.01 611.31 2.76 649.95 16.25 703.18 5.05 649.66 15.01 611.31 8.2 576.52 15.01 527.48 8.09 485.85 14.95 470.49 8.31 447.75 14.95 409.48 8.18 367.39 14.95 327.22 5.28 287.17 14.9 255.41 8.45 230.63 14.98 193.3 7.97 169.81 14.98 142.49 11.55 103.39 15.29 70.18 8.4 44.52 10.06 21.23 6.11 .5 9.55 21.24 6.59 44.56"/>
  <polyline class="cls-2" points="6.11 .5 9.55 21.24 6.59 44.56 15.29 70.18 9.36 103.34 14.98 142.49 5.9 169.79 14.98 193.3 6.64 230.68 14.9 255.41 2.76 287.29 14.95 327.22 5.89 367.93 14.95 409.48 5.95 448.35 14.95 470.49 5.84 485.81 15.01 527.48 5.95 576.86 15.01 611.31 2.76 649.95 16.25 703.18"/>
</svg>