<?xml version="1.0" encoding="UTF-8"?>
<svg id="Layer_1" data-name="Layer 1" xmlns="http://www.w3.org/2000/svg" viewBox="0 0 29.74 2040.23">
  <defs>
    <style>
      .cls-1 {
        fill: #b4a7d4;
        stroke: #b4a7d4;
      }

      .cls-1, .cls-2, .cls-3 {
        stroke-linecap: round;
        stroke-linejoin: round;
      }

      .cls-2 {
        fill: #9b7fdc;
        stroke: #9b7fdc;
      }

      .cls-3 {
        fill: none;
        stroke: #fff;
      }
    </style>
  </defs>
  <polygon class="cls-1" points="11.34 2039.73 26.26 1921.69 3.78 1746.47 21.18 1625.88 5.71 1470.23 23.11 1305.89 8.37 1133.82 23.11 965.12 12 810.45 25.05 650.94 12.72 485.87 22.63 343.04 12.72 156.22 18.13 .5 8.9 156.42 22.63 343.04 9.63 485.67 25.05 650.94 8.76 810.48 23.11 965.12 5.08 1133.81 23.05 1306.54 2.38 1471.17 21.18 1625.88 .5 1746.79 26.26 1921.69 11.34 2039.73"/>
  <polygon class="cls-2" points="11.34 2039.73 26.26 1921.69 3.78 1746.48 21.18 1625.88 5.71 1470.24 23.11 1305.89 8.37 1133.82 23.11 965.12 12 810.45 25.05 650.94 12.72 485.87 22.63 343.04 12.72 156.22 18.13 .5 12.72 156.22 25.76 343.35 12.72 485.87 27.9 651.24 12 810.45 25.6 965.23 8.37 1133.82 26.68 1306.03 5.71 1470.24 24.52 1626.2 3.78 1746.48 29.24 1921.73 11.34 2039.73"/>
  <polyline class="cls-3" points="18.13 .5 12.72 156.22 22.63 343.04 12.72 485.87 25.05 650.94 12 810.45 23.11 965.12 8.37 1133.82 23.11 1305.89 5.71 1470.24 21.18 1625.88 3.78 1746.48 26.26 1921.69 11.34 2039.73"/>
</svg>